<?xml version="1.0" encoding="utf-8" standalone="no"?>
<!DOCTYPE svg PUBLIC "-//W3C//DTD SVG 1.1//EN"
  "http://www.w3.org/Graphics/SVG/1.1/DTD/svg11.dtd">
<svg xmlns:xlink="http://www.w3.org/1999/xlink" width="460.8pt" height="345.6pt" viewBox="0 0 460.8 345.6" xmlns="http://www.w3.org/2000/svg" version="1.1">
 <metadata>
  <rdf:RDF xmlns:dc="http://purl.org/dc/elements/1.1/" xmlns:cc="http://creativecommons.org/ns#" xmlns:rdf="http://www.w3.org/1999/02/22-rdf-syntax-ns#">
   <cc:Work>
    <dc:type rdf:resource="http://purl.org/dc/dcmitype/StillImage"/>
    <dc:date>2022-10-26T20:48:16.964002</dc:date>
    <dc:format>image/svg+xml</dc:format>
    <dc:creator>
     <cc:Agent>
      <dc:title>Matplotlib v3.5.2, https://matplotlib.org/</dc:title>
     </cc:Agent>
    </dc:creator>
   </cc:Work>
  </rdf:RDF>
 </metadata>
 <defs>
  <style type="text/css">*{stroke-linejoin: round; stroke-linecap: butt}</style>
 </defs>
 <g id="figure_1">
  <g id="patch_1">
   <path d="M 0 345.6 
L 460.8 345.6 
L 460.8 0 
L 0 0 
z
" style="fill: #ffffff"/>
  </g>
  <g id="patch_2">
   <path d="M 57.6 345.6 
L 403.2 345.6 
L 403.2 0 
L 57.6 0 
z
" style="fill: #ffffff"/>
  </g>
  <g id="pane3d_1">
   <g id="patch_3">
    <path d="M 102.044562 258.287475 
L 111.254188 251.787337 
L 107.656107 51.616594 
L 98.134576 56.015174 
" style="fill: #c1ffc0; opacity: 0.752941; stroke: #c1ffc0; stroke-linejoin: miter"/>
   </g>
  </g>
  <g id="pane3d_2">
   <g id="patch_4">
    <path d="M 111.254188 251.787337 
L 373.274388 281.282793 
L 377.499548 71.598745 
L 107.656107 51.616594 
" style="fill: #c1ffc0; opacity: 0.752941; stroke: #c1ffc0; stroke-linejoin: miter"/>
   </g>
  </g>
  <g id="pane3d_3">
   <g id="patch_5">
    <path d="M 102.044562 258.287475 
L 366.658569 288.45988 
L 373.274388 281.282793 
L 111.254188 251.787337 
" style="fill: #fefec0; opacity: 0.752941; stroke: #fefec0; stroke-linejoin: miter"/>
   </g>
  </g>
  <g id="axis3d_1">
   <g id="line2d_1">
    <path d="M 102.044562 258.287475 
L 366.658569 288.45988 
" style="fill: none; stroke: #000000; stroke-width: 0.8; stroke-linecap: square"/>
   </g>
   <g id="Line3DCollection_1">
    <path d="M 127.154342 261.150598 
L 136.130484 254.587647 
L 133.241122 53.511187 
" style="fill: none; stroke: #b0b0b0; stroke-width: 0.8"/>
    <path d="M 161.33368 265.04787 
L 169.98774 258.398938 
L 168.074417 56.090624 
" style="fill: none; stroke: #b0b0b0; stroke-width: 0.8"/>
    <path d="M 195.964808 268.996658 
L 204.287517 262.260043 
L 203.376463 58.704773 
" style="fill: none; stroke: #b0b0b0; stroke-width: 0.8"/>
    <path d="M 231.056743 272.997988 
L 239.038546 266.171945 
L 239.156787 61.354338 
" style="fill: none; stroke: #b0b0b0; stroke-width: 0.8"/>
    <path d="M 266.618745 277.052917 
L 274.249792 270.135654 
L 275.425175 64.040045 
" style="fill: none; stroke: #b0b0b0; stroke-width: 0.8"/>
    <path d="M 302.660322 281.16253 
L 309.930458 274.152205 
L 312.191681 66.762638 
" style="fill: none; stroke: #b0b0b0; stroke-width: 0.8"/>
    <path d="M 339.191241 285.327939 
L 346.089994 278.222662 
L 349.466637 69.522882 
" style="fill: none; stroke: #b0b0b0; stroke-width: 0.8"/>
   </g>
   <g id="xtick_1">
    <g id="line2d_2">
     <path d="M 127.226948 261.097512 
L 127.009093 261.256799 
" style="fill: none; stroke: #000000; stroke-width: 0.8; stroke-linecap: square"/>
    </g>
    <g id="text_1">
     <!-- 1970 -->
     <g transform="translate(116.772702 281.113327)scale(0.1 -0.1)">
      <defs>
       <path id="TimesNewRomanPSMT-31" d="M 750 3822 
L 1781 4325 
L 1884 4325 
L 1884 747 
Q 1884 391 1914 303 
Q 1944 216 2037 169 
Q 2131 122 2419 116 
L 2419 0 
L 825 0 
L 825 116 
Q 1125 122 1212 167 
Q 1300 213 1334 289 
Q 1369 366 1369 747 
L 1369 3034 
Q 1369 3497 1338 3628 
Q 1316 3728 1258 3775 
Q 1200 3822 1119 3822 
Q 1003 3822 797 3725 
L 750 3822 
z
" transform="scale(0.015625)"/>
       <path id="TimesNewRomanPSMT-39" d="M 338 -88 
L 338 28 
Q 744 34 1094 217 
Q 1444 400 1770 856 
Q 2097 1313 2225 1859 
Q 1734 1544 1338 1544 
Q 891 1544 572 1889 
Q 253 2234 253 2806 
Q 253 3363 572 3797 
Q 956 4325 1575 4325 
Q 2097 4325 2469 3894 
Q 2925 3359 2925 2575 
Q 2925 1869 2578 1258 
Q 2231 647 1613 244 
Q 1109 -88 516 -88 
L 338 -88 
z
M 2275 2091 
Q 2331 2497 2331 2741 
Q 2331 3044 2228 3395 
Q 2125 3747 1936 3934 
Q 1747 4122 1506 4122 
Q 1228 4122 1018 3872 
Q 809 3622 809 3128 
Q 809 2469 1088 2097 
Q 1291 1828 1588 1828 
Q 1731 1828 1928 1897 
Q 2125 1966 2275 2091 
z
" transform="scale(0.015625)"/>
       <path id="TimesNewRomanPSMT-37" d="M 644 4238 
L 2916 4238 
L 2916 4119 
L 1503 -88 
L 1153 -88 
L 2419 3728 
L 1253 3728 
Q 900 3728 750 3644 
Q 488 3500 328 3200 
L 238 3234 
L 644 4238 
z
" transform="scale(0.015625)"/>
       <path id="TimesNewRomanPSMT-30" d="M 231 2094 
Q 231 2819 450 3342 
Q 669 3866 1031 4122 
Q 1313 4325 1613 4325 
Q 2100 4325 2488 3828 
Q 2972 3213 2972 2159 
Q 2972 1422 2759 906 
Q 2547 391 2217 158 
Q 1888 -75 1581 -75 
Q 975 -75 572 641 
Q 231 1244 231 2094 
z
M 844 2016 
Q 844 1141 1059 588 
Q 1238 122 1591 122 
Q 1759 122 1940 273 
Q 2122 425 2216 781 
Q 2359 1319 2359 2297 
Q 2359 3022 2209 3506 
Q 2097 3866 1919 4016 
Q 1791 4119 1609 4119 
Q 1397 4119 1231 3928 
Q 1006 3669 925 3112 
Q 844 2556 844 2016 
z
" transform="scale(0.015625)"/>
      </defs>
      <use xlink:href="#TimesNewRomanPSMT-31"/>
      <use xlink:href="#TimesNewRomanPSMT-39" x="50"/>
      <use xlink:href="#TimesNewRomanPSMT-37" x="100"/>
      <use xlink:href="#TimesNewRomanPSMT-30" x="150"/>
     </g>
    </g>
   </g>
   <g id="xtick_2">
    <g id="line2d_3">
     <path d="M 161.403685 264.994085 
L 161.193632 265.15547 
" style="fill: none; stroke: #000000; stroke-width: 0.8; stroke-linecap: square"/>
    </g>
    <g id="text_2">
     <!-- 1980 -->
     <g transform="translate(150.911089 285.091598)scale(0.1 -0.1)">
      <defs>
       <path id="TimesNewRomanPSMT-38" d="M 1228 2134 
Q 725 2547 579 2797 
Q 434 3047 434 3316 
Q 434 3728 753 4026 
Q 1072 4325 1600 4325 
Q 2113 4325 2425 4047 
Q 2738 3769 2738 3413 
Q 2738 3175 2569 2928 
Q 2400 2681 1866 2347 
Q 2416 1922 2594 1678 
Q 2831 1359 2831 1006 
Q 2831 559 2490 242 
Q 2150 -75 1597 -75 
Q 994 -75 656 303 
Q 388 606 388 966 
Q 388 1247 577 1523 
Q 766 1800 1228 2134 
z
M 1719 2469 
Q 2094 2806 2194 3001 
Q 2294 3197 2294 3444 
Q 2294 3772 2109 3958 
Q 1925 4144 1606 4144 
Q 1288 4144 1088 3959 
Q 888 3775 888 3528 
Q 888 3366 970 3203 
Q 1053 3041 1206 2894 
L 1719 2469 
z
M 1375 2016 
Q 1116 1797 991 1539 
Q 866 1281 866 981 
Q 866 578 1086 336 
Q 1306 94 1647 94 
Q 1984 94 2187 284 
Q 2391 475 2391 747 
Q 2391 972 2272 1150 
Q 2050 1481 1375 2016 
z
" transform="scale(0.015625)"/>
      </defs>
      <use xlink:href="#TimesNewRomanPSMT-31"/>
      <use xlink:href="#TimesNewRomanPSMT-39" x="50"/>
      <use xlink:href="#TimesNewRomanPSMT-38" x="100"/>
      <use xlink:href="#TimesNewRomanPSMT-30" x="150"/>
     </g>
    </g>
   </g>
   <g id="xtick_3">
    <g id="line2d_4">
     <path d="M 196.032138 268.942159 
L 195.830112 269.105684 
" style="fill: none; stroke: #000000; stroke-width: 0.8; stroke-linecap: square"/>
    </g>
    <g id="text_3">
     <!-- 1990 -->
     <g transform="translate(185.500214 289.122395)scale(0.1 -0.1)">
      <use xlink:href="#TimesNewRomanPSMT-31"/>
      <use xlink:href="#TimesNewRomanPSMT-39" x="50"/>
      <use xlink:href="#TimesNewRomanPSMT-39" x="100"/>
      <use xlink:href="#TimesNewRomanPSMT-30" x="150"/>
     </g>
    </g>
   </g>
   <g id="xtick_4">
    <g id="line2d_5">
     <path d="M 231.12132 272.942762 
L 230.927554 273.10847 
" style="fill: none; stroke: #000000; stroke-width: 0.8; stroke-linecap: square"/>
    </g>
    <g id="text_4">
     <!-- 2000 -->
     <g transform="translate(220.549063 293.206766)scale(0.1 -0.1)">
      <defs>
       <path id="TimesNewRomanPSMT-32" d="M 2934 816 
L 2638 0 
L 138 0 
L 138 116 
Q 1241 1122 1691 1759 
Q 2141 2397 2141 2925 
Q 2141 3328 1894 3587 
Q 1647 3847 1303 3847 
Q 991 3847 742 3664 
Q 494 3481 375 3128 
L 259 3128 
Q 338 3706 661 4015 
Q 984 4325 1469 4325 
Q 1984 4325 2329 3994 
Q 2675 3663 2675 3213 
Q 2675 2891 2525 2569 
Q 2294 2063 1775 1497 
Q 997 647 803 472 
L 1909 472 
Q 2247 472 2383 497 
Q 2519 522 2628 598 
Q 2738 675 2819 816 
L 2934 816 
z
" transform="scale(0.015625)"/>
      </defs>
      <use xlink:href="#TimesNewRomanPSMT-32"/>
      <use xlink:href="#TimesNewRomanPSMT-30" x="50"/>
      <use xlink:href="#TimesNewRomanPSMT-30" x="100"/>
      <use xlink:href="#TimesNewRomanPSMT-30" x="150"/>
     </g>
    </g>
   </g>
   <g id="xtick_5">
    <g id="line2d_6">
     <path d="M 266.680489 276.996949 
L 266.495224 277.164885 
" style="fill: none; stroke: #000000; stroke-width: 0.8; stroke-linecap: square"/>
    </g>
    <g id="text_5">
     <!-- 2010 -->
     <g transform="translate(256.066863 297.345785)scale(0.1 -0.1)">
      <use xlink:href="#TimesNewRomanPSMT-32"/>
      <use xlink:href="#TimesNewRomanPSMT-30" x="50"/>
      <use xlink:href="#TimesNewRomanPSMT-31" x="100"/>
      <use xlink:href="#TimesNewRomanPSMT-30" x="150"/>
     </g>
    </g>
   </g>
   <g id="xtick_6">
    <g id="line2d_7">
     <path d="M 302.71915 281.105804 
L 302.542634 281.276012 
" style="fill: none; stroke: #000000; stroke-width: 0.8; stroke-linecap: square"/>
    </g>
    <g id="text_6">
     <!-- 2020 -->
     <g transform="translate(292.063088 301.540556)scale(0.1 -0.1)">
      <use xlink:href="#TimesNewRomanPSMT-32"/>
      <use xlink:href="#TimesNewRomanPSMT-30" x="50"/>
      <use xlink:href="#TimesNewRomanPSMT-32" x="100"/>
      <use xlink:href="#TimesNewRomanPSMT-30" x="150"/>
     </g>
    </g>
   </g>
   <g id="xtick_7">
    <g id="line2d_8">
     <path d="M 339.247068 285.270441 
L 339.079556 285.442968 
" style="fill: none; stroke: #000000; stroke-width: 0.8; stroke-linecap: square"/>
    </g>
    <g id="text_7">
     <!-- 2030 -->
     <g transform="translate(328.547472 305.792215)scale(0.1 -0.1)">
      <defs>
       <path id="TimesNewRomanPSMT-33" d="M 325 3431 
Q 506 3859 782 4092 
Q 1059 4325 1472 4325 
Q 1981 4325 2253 3994 
Q 2459 3747 2459 3466 
Q 2459 3003 1878 2509 
Q 2269 2356 2469 2072 
Q 2669 1788 2669 1403 
Q 2669 853 2319 450 
Q 1863 -75 997 -75 
Q 569 -75 414 31 
Q 259 138 259 259 
Q 259 350 332 419 
Q 406 488 509 488 
Q 588 488 669 463 
Q 722 447 909 348 
Q 1097 250 1169 231 
Q 1284 197 1416 197 
Q 1734 197 1970 444 
Q 2206 691 2206 1028 
Q 2206 1275 2097 1509 
Q 2016 1684 1919 1775 
Q 1784 1900 1550 2001 
Q 1316 2103 1072 2103 
L 972 2103 
L 972 2197 
Q 1219 2228 1467 2375 
Q 1716 2522 1828 2728 
Q 1941 2934 1941 3181 
Q 1941 3503 1739 3701 
Q 1538 3900 1238 3900 
Q 753 3900 428 3381 
L 325 3431 
z
" transform="scale(0.015625)"/>
      </defs>
      <use xlink:href="#TimesNewRomanPSMT-32"/>
      <use xlink:href="#TimesNewRomanPSMT-30" x="50"/>
      <use xlink:href="#TimesNewRomanPSMT-33" x="100"/>
      <use xlink:href="#TimesNewRomanPSMT-30" x="150"/>
     </g>
    </g>
   </g>
  </g>
  <g id="axis3d_2">
   <g id="line2d_9">
    <path d="M 373.274388 281.282793 
L 366.658569 288.45988 
" style="fill: none; stroke: #000000; stroke-width: 0.8; stroke-linecap: square"/>
   </g>
  </g>
  <g id="axis3d_3">
   <g id="line2d_10">
    <path d="M 373.274388 281.282793 
L 377.499548 71.598745 
" style="fill: none; stroke: #000000; stroke-width: 0.8; stroke-linecap: square"/>
   </g>
   <g id="Line3DCollection_2">
    <path d="M 373.356433 277.211102 
L 111.184219 247.894777 
L 101.968552 254.355295 
" style="fill: none; stroke: #b0b0b0; stroke-width: 0.8"/>
    <path d="M 374.348627 227.971023 
L 110.33838 200.838562 
L 101.049607 206.816208 
" style="fill: none; stroke: #b0b0b0; stroke-width: 0.8"/>
    <path d="M 375.355161 178.019249 
L 109.480913 153.135373 
L 100.117884 158.61613 
" style="fill: none; stroke: #b0b0b0; stroke-width: 0.8"/>
    <path d="M 376.37635 127.340239 
L 108.611575 104.771773 
L 99.173117 109.741179 
" style="fill: none; stroke: #b0b0b0; stroke-width: 0.8"/>
    <path d="M 377.412515 75.917993 
L 107.730117 55.733954 
L 98.215027 60.17708 
" style="fill: none; stroke: #b0b0b0; stroke-width: 0.8"/>
   </g>
   <g id="xtick_8">
    <g id="line2d_11">
     <path d="M 371.153992 276.964823 
L 377.76666 277.704257 
" style="fill: none; stroke: #000000; stroke-width: 0.8; stroke-linecap: square"/>
    </g>
    <g id="text_8">
     <!-- 0 -->
     <g transform="translate(388.915402 285.675746)scale(0.1 -0.1)">
      <use xlink:href="#TimesNewRomanPSMT-30"/>
     </g>
    </g>
   </g>
   <g id="xtick_9">
    <g id="line2d_12">
     <path d="M 372.129986 227.743012 
L 378.791332 228.427602 
" style="fill: none; stroke: #000000; stroke-width: 0.8; stroke-linecap: square"/>
    </g>
    <g id="text_9">
     <!-- 5 -->
     <g transform="translate(390.039986 236.322882)scale(0.1 -0.1)">
      <defs>
       <path id="TimesNewRomanPSMT-35" d="M 2778 4238 
L 2534 3706 
L 1259 3706 
L 981 3138 
Q 1809 3016 2294 2522 
Q 2709 2097 2709 1522 
Q 2709 1188 2573 903 
Q 2438 619 2231 419 
Q 2025 219 1772 97 
Q 1413 -75 1034 -75 
Q 653 -75 479 54 
Q 306 184 306 341 
Q 306 428 378 495 
Q 450 563 559 563 
Q 641 563 702 538 
Q 763 513 909 409 
Q 1144 247 1384 247 
Q 1750 247 2026 523 
Q 2303 800 2303 1197 
Q 2303 1581 2056 1914 
Q 1809 2247 1375 2428 
Q 1034 2569 447 2591 
L 1259 4238 
L 2778 4238 
z
" transform="scale(0.015625)"/>
      </defs>
      <use xlink:href="#TimesNewRomanPSMT-35"/>
     </g>
    </g>
   </g>
   <g id="xtick_10">
    <g id="line2d_13">
     <path d="M 373.120081 177.810062 
L 379.830825 178.438139 
" style="fill: none; stroke: #000000; stroke-width: 0.8; stroke-linecap: square"/>
    </g>
    <g id="text_10">
     <!-- 10 -->
     <g transform="translate(388.680866 186.254888)scale(0.1 -0.1)">
      <use xlink:href="#TimesNewRomanPSMT-31"/>
      <use xlink:href="#TimesNewRomanPSMT-30" x="50"/>
     </g>
    </g>
   </g>
   <g id="xtick_11">
    <g id="line2d_14">
     <path d="M 374.124585 127.15045 
L 380.885465 127.720288 
" style="fill: none; stroke: #000000; stroke-width: 0.8; stroke-linecap: square"/>
    </g>
    <g id="text_11">
     <!-- 15 -->
     <g transform="translate(389.838398 135.456106)scale(0.1 -0.1)">
      <use xlink:href="#TimesNewRomanPSMT-31"/>
      <use xlink:href="#TimesNewRomanPSMT-35" x="50"/>
     </g>
    </g>
   </g>
   <g id="xtick_12">
    <g id="line2d_15">
     <path d="M 375.143814 75.748195 
L 381.955584 76.258014 
" style="fill: none; stroke: #000000; stroke-width: 0.8; stroke-linecap: square"/>
    </g>
    <g id="text_12">
     <!-- 20 -->
     <g transform="translate(391.01295 83.91042)scale(0.1 -0.1)">
      <use xlink:href="#TimesNewRomanPSMT-32"/>
      <use xlink:href="#TimesNewRomanPSMT-30" x="50"/>
     </g>
    </g>
   </g>
  </g>
  <g id="axes_1">
   <g id="Poly3DCollection_1">
    <path d="M 126.543388 250.085485 
L 126.113229 222.776462 
L 144.144643 224.699945 
L 144.504853 252.095585 
z
" clip-path="url(#pdc6602e35d)" style="fill: #39376a"/>
    <path d="M 118.630973 255.758575 
L 126.543388 250.085485 
L 144.504853 252.095585 
L 136.740404 257.808087 
z
" clip-path="url(#pdc6602e35d)" style="fill: #494687"/>
    <path d="M 118.630973 255.758575 
L 118.164939 228.205231 
L 126.113229 222.776462 
L 126.543388 250.085485 
z
" clip-path="url(#pdc6602e35d)" style="fill: #7975e0"/>
    <path d="M 136.740404 257.808087 
L 144.504853 252.095585 
L 144.144643 224.699945 
L 136.345474 230.16658 
z
" clip-path="url(#pdc6602e35d)" style="fill: #39376a"/>
    <path d="M 118.164939 228.205231 
L 136.345474 230.16658 
L 144.144643 224.699945 
L 126.113229 222.776462 
z
" clip-path="url(#pdc6602e35d)" style="fill: #6965c3"/>
    <path d="M 160.32313 253.865837 
L 159.880118 213.053071 
L 178.182549 214.958908 
L 178.518888 255.902156 
z
" clip-path="url(#pdc6602e35d)" style="fill: #39376a"/>
    <path d="M 152.689998 259.613162 
L 160.32313 253.865837 
L 178.518888 255.902156 
L 171.03798 261.689671 
z
" clip-path="url(#pdc6602e35d)" style="fill: #494687"/>
    <path d="M 118.630973 255.758575 
L 136.740404 257.808087 
L 136.345474 230.16658 
L 118.164939 228.205231 
z
" clip-path="url(#pdc6602e35d)" style="fill: #7975e0"/>
    <path d="M 152.689998 259.613162 
L 152.196932 218.432321 
L 159.880118 213.053071 
L 160.32313 253.865837 
z
" clip-path="url(#pdc6602e35d)" style="fill: #7975e0"/>
    <path d="M 171.03798 261.689671 
L 178.518888 255.902156 
L 178.182549 214.958908 
L 170.653378 220.375999 
z
" clip-path="url(#pdc6602e35d)" style="fill: #39376a"/>
    <path d="M 152.196932 218.432321 
L 170.653378 220.375999 
L 178.182549 214.958908 
L 159.880118 213.053071 
z
" clip-path="url(#pdc6602e35d)" style="fill: #6965c3"/>
    <path d="M 194.544177 257.695575 
L 194.160515 192.540496 
L 212.768965 194.393208 
L 212.978844 259.758632 
z
" clip-path="url(#pdc6602e35d)" style="fill: #39376a"/>
    <path d="M 187.198368 263.518602 
L 194.544177 257.695575 
L 212.978844 259.758632 
L 205.789645 265.622647 
z
" clip-path="url(#pdc6602e35d)" style="fill: #494687"/>
    <path d="M 152.689998 259.613162 
L 171.03798 261.689671 
L 170.653378 220.375999 
L 152.196932 218.432321 
z
" clip-path="url(#pdc6602e35d)" style="fill: #7975e0"/>
    <path d="M 187.198368 263.518602 
L 186.740648 197.770137 
L 194.160515 192.540496 
L 194.544177 257.695575 
z
" clip-path="url(#pdc6602e35d)" style="fill: #7975e0"/>
    <path d="M 205.789645 265.622647 
L 212.978844 259.758632 
L 212.768965 194.393208 
L 205.508685 199.660012 
z
" clip-path="url(#pdc6602e35d)" style="fill: #39376a"/>
    <path d="M 222.165035 267.475911 
L 229.215235 261.575675 
L 247.893546 263.665998 
L 241.004479 269.608041 
z
" clip-path="url(#pdc6602e35d)" style="fill: #494687"/>
    <path d="M 229.215235 261.575675 
L 229.142823 176.507069 
L 248.052703 178.320261 
L 247.893546 263.665998 
z
" clip-path="url(#pdc6602e35d)" style="fill: #39376a"/>
    <path d="M 186.740648 197.770137 
L 205.508685 199.660012 
L 212.768965 194.393208 
L 194.160515 192.540496 
z
" clip-path="url(#pdc6602e35d)" style="fill: #6965c3"/>
    <path d="M 187.198368 263.518602 
L 205.789645 265.622647 
L 205.508685 199.660012 
L 186.740648 197.770137 
z
" clip-path="url(#pdc6602e35d)" style="fill: #7975e0"/>
    <path d="M 222.165035 267.475911 
L 222.003825 181.625468 
L 229.142823 176.507069 
L 229.215235 261.575675 
z
" clip-path="url(#pdc6602e35d)" style="fill: #7975e0"/>
    <path d="M 257.599189 271.486126 
L 264.34524 265.507137 
L 283.272058 267.625271 
L 276.691803 273.646908 
z
" clip-path="url(#pdc6602e35d)" style="fill: #494687"/>
    <path d="M 241.004479 269.608041 
L 247.893546 263.665998 
L 248.052703 178.320261 
L 241.078875 183.475381 
z
" clip-path="url(#pdc6602e35d)" style="fill: #39376a"/>
    <path d="M 264.34524 265.507137 
L 264.755922 169.068636 
L 283.950683 170.870157 
L 283.272058 267.625271 
z
" clip-path="url(#pdc6602e35d)" style="fill: #39376a"/>
    <path d="M 222.165035 267.475911 
L 241.004479 269.608041 
L 241.078875 183.475381 
L 222.003825 181.625468 
z
" clip-path="url(#pdc6602e35d)" style="fill: #7975e0"/>
    <path d="M 257.599189 271.486126 
L 257.918439 174.154361 
L 264.755922 169.068636 
L 264.34524 265.507137 
z
" clip-path="url(#pdc6602e35d)" style="fill: #7975e0"/>
    <path d="M 222.003825 181.625468 
L 241.078875 183.475381 
L 248.052703 178.320261 
L 229.142823 176.507069 
z
" clip-path="url(#pdc6602e35d)" style="fill: #6965c3"/>
    <path d="M 293.510269 275.550317 
L 299.943364 269.490986 
L 319.123681 271.63749 
L 312.861191 277.740333 
z
" clip-path="url(#pdc6602e35d)" style="fill: #494687"/>
    <path d="M 276.691803 273.646908 
L 283.272058 267.625271 
L 283.950683 170.870157 
L 277.28375 175.992672 
z
" clip-path="url(#pdc6602e35d)" style="fill: #39376a"/>
    <path d="M 299.943364 269.490986 
L 301.275149 128.445642 
L 320.855501 130.123027 
L 319.123681 271.63749 
z
" clip-path="url(#pdc6602e35d)" style="fill: #39376a"/>
    <path d="M 257.599189 271.486126 
L 276.691803 273.646908 
L 277.28375 175.992672 
L 257.918439 174.154361 
z
" clip-path="url(#pdc6602e35d)" style="fill: #7975e0"/>
    <path d="M 329.907968 279.66958 
L 336.019027 273.528278 
L 355.457971 275.703725 
L 349.522476 281.889427 
z
" clip-path="url(#pdc6602e35d)" style="fill: #494687"/>
    <path d="M 257.918439 174.154361 
L 277.28375 175.992672 
L 283.950683 170.870157 
L 264.755922 169.068636 
z
" clip-path="url(#pdc6602e35d)" style="fill: #6965c3"/>
    <path d="M 293.510269 275.550317 
L 294.722316 133.181337 
L 301.275149 128.445642 
L 299.943364 269.490986 
z
" clip-path="url(#pdc6602e35d)" style="fill: #7975e0"/>
    <path d="M 312.861191 277.740333 
L 319.123681 271.63749 
L 320.855501 130.123027 
L 314.480509 134.893435 
z
" clip-path="url(#pdc6602e35d)" style="fill: #39376a"/>
    <path d="M 293.510269 275.550317 
L 312.861191 277.740333 
L 314.480509 134.893435 
L 294.722316 133.181337 
z
" clip-path="url(#pdc6602e35d)" style="fill: #7975e0"/>
    <path d="M 336.019027 273.528278 
L 338.91615 76.46767 
L 358.925732 77.977934 
L 355.457971 275.703725 
z
" clip-path="url(#pdc6602e35d)" style="fill: #39376a"/>
    <path d="M 329.907968 279.66958 
L 332.658094 80.731957 
L 338.91615 76.46767 
L 336.019027 273.528278 
z
" clip-path="url(#pdc6602e35d)" style="fill: #7975e0"/>
    <path d="M 294.722316 133.181337 
L 314.480509 134.893435 
L 320.855501 130.123027 
L 301.275149 128.445642 
z
" clip-path="url(#pdc6602e35d)" style="fill: #6965c3"/>
    <path d="M 349.522476 281.889427 
L 355.457971 275.703725 
L 358.925732 77.977934 
L 352.853775 82.273945 
z
" clip-path="url(#pdc6602e35d)" style="fill: #39376a"/>
    <path d="M 329.907968 279.66958 
L 349.522476 281.889427 
L 352.853775 82.273945 
L 332.658094 80.731957 
z
" clip-path="url(#pdc6602e35d)" style="fill: #7975e0"/>
    <path d="M 332.658094 80.731957 
L 352.853775 82.273945 
L 358.925732 77.977934 
L 338.91615 76.46767 
z
" clip-path="url(#pdc6602e35d)" style="fill: #6965c3"/>
   </g>
  </g>
 </g>
 <defs>
  <clipPath id="pdc6602e35d">
   <rect x="57.6" y="0" width="345.6" height="345.6"/>
  </clipPath>
 </defs>
</svg>
